<svg id="Group_148" data-name="Group 148" xmlns="http://www.w3.org/2000/svg" xmlns:xlink="http://www.w3.org/1999/xlink" width="214.226" height="55.12" viewBox="0 0 214.226 55.12">
  <defs>
    <clipPath id="clip-path">
      <rect id="Rectangle_81" data-name="Rectangle 81" width="214.226" height="55.12" fill="#fff"/>
    </clipPath>
  </defs>
  <g id="Group_147" data-name="Group 147" clip-path="url(#clip-path)">
    <path id="Path_272" data-name="Path 272" d="M95.5,18.372c-4.575,0-7.842,2.833-8.861,8.57V0H76.9V.144c2.833,1.453,3.777,2.978,3.777,7.771v31.01a106.144,106.144,0,0,1-1.112,15.1c-.054.259-.121.226-.121.226-2.832-1.453-3.34-2.252-3.34-7.043V27.377c0-6.173-2.9-9.006-7.48-9.006-3.995,0-7.116,2.76-8.5,7.7-.435-5.084-3.267-7.7-7.408-7.7-3.994,0-7.043,2.9-8.423,7.843V19.1H34.567v.145c2.832,1.379,3.777,2.978,3.777,7.771V47.2c0,3.956-.35,5.19-2.064,6.317-2-1.39-2.668-3.068-3.963-7.263L19.1,2.831h-.218L6.174,44.515C4.576,49.6,3.051,52.722,0,54.247v.146H11.184v-.148c-2.542-1.09-3.631-3.268-3.631-6.027A13.468,13.468,0,0,1,8.206,44.3l2.18-7.117h13l2.687,8.861a17.561,17.561,0,0,1,.871,4.357c0,1.816-.871,2.978-3.05,3.848v.146H47.711v-.146C44.879,52.793,44.3,51.994,44.3,47.2V32.17c0-7.481,2.978-10.095,5.81-10.095,3.557,0,4.138,2.76,4.138,5.955V47.2c0,4.793-.508,5.591-3.34,7.043v.146H63.544v-.146c-2.832-1.453-3.339-2.252-3.339-7.043V32.17c0-7.481,2.9-10.095,5.736-10.095,3.631,0,4.212,2.76,4.212,5.955V47.2c0,4.793-.581,5.591-3.34,7.043v.146H79.449c2.2,0,6.172-3.632,6.752-7.7,1.162,5.81,4.721,8.424,8.86,8.424,6.246,0,11.692-7.19,11.692-18.3,0-11.909-5.374-18.446-11.257-18.446M10.9,35.365,16.852,15.83l5.955,19.535ZM93.462,52.793c-3.268,0-6.826-4.065-6.826-12.489V32.751c0-8.207,3.705-12.129,6.973-12.129,4.357,0,6.609,6.682,6.609,16.2,0,9.077-2.4,15.976-6.756,15.976" transform="translate(0 0.001)" fill="#fff"/>
    <path id="Path_273" data-name="Path 273" d="M296.677,17.925a4.14,4.14,0,1,0,0-8.278,4.14,4.14,0,1,0,0,8.279Z" transform="translate(-184.625 -6.088)" fill="#fff"/>
    <path id="Path_274" data-name="Path 274" d="M295.379,79.881v-28.1h-9.731v.145c2.832,1.379,3.777,2.978,3.777,7.771V79.882c0,4.793-.508,5.591-3.341,7.043v.146h12.708v-.146c-2.832-1.453-3.413-2.252-3.413-7.044" transform="translate(-180.277 -32.677)" fill="#fff"/>
    <path id="Path_275" data-name="Path 275" d="M366.87,78.636V58.811c0-6.173-3.268-9.006-7.771-9.006-4.285,0-7.479,2.9-8.861,7.844V50.533h-9.731v.145c2.832,1.379,3.775,2.978,3.775,7.771V78.636a17.387,17.387,0,0,1-.288,3.857v-.009a2.552,2.552,0,0,1-2.034.872c-1.525,0-2.9-.944-2.9-3.777,0-4.285.145-11.62.145-19.753,0-7.118-3.559-10.023-10.313-10.023-5.228,0-9.948,3.123-9.948,8.062,0,3.485,2.106,5.3,4.938,5.3a3.99,3.99,0,0,0,4.068-3.05,2.247,2.247,0,0,1-.945.218c-2.3,0-3.459-1.737-3.412-4.52a4.656,4.656,0,0,1,4.858-4.615c2.928.207,4.582,2.541,4.582,5.868v8.57l-2.76.871c-6.246,1.961-12.927,4.575-12.927,11.62,0,5.374,3.631,8.207,7.772,8.207,4.211,0,7.408-3.05,7.989-7.553l.073,1.525c.217,3.849,2.322,6.1,5.445,6.1a6.1,6.1,0,0,0,2.509-.487,1.045,1.045,0,0,1,.425-.094h12.1v-.146c-2.832-1.452-3.414-2.251-3.414-7.043V63.6c0-7.481,3.123-10.095,6.173-10.095,3.558,0,4.5,2.76,4.5,5.955V78.636c0,4.793-.508,5.591-3.34,7.043v.146h12.708v-.146c-2.832-1.453-3.413-2.251-3.413-7.043M332.956,74.5c-.073,5.518-2.4,7.7-5.3,7.7-2.832,0-4.5-2.179-4.5-5.52,0-5.447,3.486-7.479,7.7-8.86l2.179-.726Z" transform="translate(-200.28 -31.432)" fill="#fff"/>
    <path id="Path_276" data-name="Path 276" d="M471.276,83.139c-5.665,0-7.842-6.68-7.842-16.194,0-10.094,3.413-15.758,7.408-15.758,2.4,0,3.777,1.525,3.777,4.212,0,2.469-1.38,4.14-3.2,4.14h-1.017c.436,1.815,2.251,2.687,4.067,2.687a4.806,4.806,0,0,0,4.939-5.084c0-4.429-3.487-7.335-8.788-7.335-6.827,0-13.508,7.771-13.508,18.591,0,11.546,5.665,18.155,12.2,18.155,5.955,0,9.585-4.285,10.24-12.055l-.508-.073c-1.091,6.171-3.851,8.713-7.772,8.713" transform="translate(-288.493 -31.434)" fill="#fff"/>
    <path id="Path_277" data-name="Path 277" d="M532.288,83.284c-5.955,0-8.425-7.045-8.425-16.557h16.993c0-10.023-3.341-16.922-10.821-16.922-6.754,0-12.492,7.626-12.492,18.447,0,11.547,5.81,18.3,12.637,18.3,6.1,0,9.514-4.285,10.531-11.982L540.2,74.5c-1.525,6.026-4.429,8.787-7.915,8.787m-2.251-32.026c4.43,0,4.793,6.536,4.793,13.8H523.936c.291-7.7,2.687-13.8,6.1-13.8Z" transform="translate(-326.631 -31.433)" fill="#fff"/>
    <text id="CLUB" transform="translate(30.047 13.086)" fill="#fff" font-size="14" font-family="SegoeUI, Segoe UI"><tspan x="0" y="0" letter-spacing="0.1em">CLU</tspan><tspan y="0">B</tspan></text>
  </g>
</svg>
